<?xml version="1.0" encoding="utf-8"?>
<!-- Generator: Adobe Illustrator 27.5.0, SVG Export Plug-In . SVG Version: 6.00 Build 0)  -->
<svg version="1.1" id="Capa_1" xmlns="http://www.w3.org/2000/svg" xmlns:xlink="http://www.w3.org/1999/xlink" x="0px" y="0px"
	 viewBox="0 0 2122 2122" style="enable-background:new 0 0 2122 2122;" xml:space="preserve">
<g>
	<path style="fill:#D36724;" d="M1585.656,788.883l-0.911,0.85c105.314,124.909,168.816,286.217,168.817,462.387
		c-0.001,160.277-52.548,308.265-141.33,427.727c-61.497,82.741-141.118,151.24-231.498,200.724
		c-89.481,48.991-189.249,79.48-291.029,87.307c-17.942,1.379-35.944,2.039-53.94,2.04
		c-173.441-0.001-332.507-61.512-456.587-163.91c-4.43-3.657-8.817-7.366-13.158-11.127c-10.089-8.74-19.901-17.789-29.489-27.072
		l-0.911,0.85c131.897,156.438,329.294,255.853,549.936,255.853c397.115,0,719.043-321.927,719.043-719.044
		C1804.6,1102.719,1720.65,919.596,1585.656,788.883z"/>
	<path style="fill:#7C7C7B;" d="M682.407,516.648l-99.673,64.28l31.985,49.596l0.529-0.35
		c28.263-18.755,62.764-38.928,103.035-57.742l0.647-0.302l-36-55.821L682.407,516.648z"/>
	<path style="fill:#7C7C7B;" d="M964.297,503.306l0.69-0.074c27.266-2.969,55.576-4.67,85.002-4.67
		c27.838,0,54.568,1.668,80.284,4.575l0.693,0.079v-0.699V386.733h-166.67V503.306z"/>
	<path style="fill:#7C7C7B;" d="M1488.268,580.59l-99.673-64.281l-33.287,51.617l0.636,0.307
		c39.839,19.171,73.858,40.073,101.76,59.707l0.53,0.374l30.559-47.385L1488.268,580.59z"/>
	<path style="fill:#DCE2EE;" d="M1427.313,814.225l-0.415-0.371l-0.414,0.369l-4.878,4.331c-5.856,5.198-13.169,7.815-20.508,7.859
		l-0.188,0c-7.277,0-14.561-2.531-20.452-7.589c-23.798-20.428-67.886-53.564-129.328-80.145c-3.615-1.564-7.289-3.105-11.023-4.619
		c-7.467-3.029-15.173-5.951-23.111-8.735c-19.845-6.961-41.147-13.06-63.829-17.807c-9.073-1.899-18.367-3.581-27.877-5.016
		c-23.774-3.587-48.9-5.626-75.299-5.626c-183.947,0.003-314.272,87.4-363.119,126.245c-2.634,2.094-5.547,3.6-8.578,4.725
		c-1.313,0.487-2.644,0.862-4.007,1.167c-1.192,0.267-2.351,0.534-3.504,0.655c-1.105,0.117-2.214,0.175-3.321,0.175
		c-7.918-0.001-15.794-2.975-21.826-8.886l-4.289-4.2l-0.434,0.397c-118.312,107.464-192.602,262.541-192.6,434.966
		c0,324.441,263.01,587.451,587.452,587.451c324.439,0,587.451-263.011,587.451-587.451
		C1623.217,1078.109,1547.53,921.79,1427.313,814.225z"/>
	<path style="fill:#FFFFFF;" d="M1470.224,1261.851h91.106l-0.008-0.633c-2.063-135.046-53.397-258.128-136.834-352.081
		l-0.441-0.496l-70.799,70.801l-20.254-20.253l71.455-71.455l-0.438-0.442c-98.432-99.309-234.93-160.835-385.803-160.835
		c-300.013,0-543.221,243.208-543.221,543.221c0,300.012,243.207,543.221,543.221,543.221c1.054,0,2.085-0.033,3.113-0.039
		l0.62-0.003v-102.722h28.644v101.773l0.66-0.038c134.443-8.069,255.691-65.023,346.227-153.34l0.452-0.441l-64.931-64.931
		l20.253-20.254l64.634,64.636l0.442-0.48c84.335-91.8,137.465-212.7,142.644-345.917l0.023-0.648h-90.768L1470.224,1261.851z"/>
	<path style="fill:#F3912B;" d="M1612.284,1679.785c-130.473,134.604-313.159,218.292-515.424,218.294
		c-198.217-0.001-377.662-80.342-507.56-210.238c-129.896-129.897-210.237-309.342-210.239-507.559
		c0.001-160.277,52.547-308.265,141.328-427.724l-0.948-0.806c-3.884,4.007-7.72,8.06-11.509,12.155l-0.168,0.18l-0.039,0.041
		l0.035-0.037c-110.544,120.158-178.534,277.213-189.451,440.251c-1.065,15.901-1.59,31.843-1.59,47.78
		c-0.001,49.638,5.03,98.103,14.608,144.911c3.591,17.553,7.824,34.873,12.669,51.935c1.615,5.687,3.298,11.346,5.05,16.975
		c5.252,16.887,11.111,33.507,17.548,49.834c2.148,5.442,4.357,10.852,6.631,16.229c4.548,10.753,9.351,21.372,14.4,31.851
		c5.05,10.478,10.346,20.815,15.881,31.003c16.603,30.565,35.358,59.792,56.062,87.477c31.057,41.527,66.497,79.585,105.635,113.487
		c4.348,3.767,8.743,7.483,13.183,11.146c124.291,102.575,283.641,164.195,457.379,164.194c113.975,0,227.069-27.252,328.363-79.496
		c97.645-50.363,183.547-122.87,249.104-211.077L1612.284,1679.785z"/>
	<path style="fill:#352E35;" d="M687.821,732.892L687.821,732.892c116.642-51.841,242.699-86.156,367.646-86.155
		c115.425,0.002,229.9,29.274,335.203,101.068l0.018,0.013l0.023,0.013c10.524,6.014,22.39,8.883,34.647,8.882
		c28.815-0.004,59.797-15.831,80.91-43.973l0.029-0.04l0.014-0.025c5.844-10.23,10.812-22.992,13.715-36.452l0.075-0.353
		l-0.268-0.241c-15.072-13.551-35.647-30.58-61.412-48.71c-27.952-19.668-62.028-40.606-101.935-59.811
		c-61.807-29.742-137.589-55.209-226.072-65.211c-25.76-2.912-52.536-4.583-80.424-4.583c-29.474,0-57.83,1.704-85.137,4.677
		c-97.001,10.561-180.044,37.984-247.097,69.311c-40.334,18.843-74.889,39.047-103.198,57.833
		c-8.117,5.387-15.673,10.632-22.746,15.706l-0.954,0.685l-0.37,0.266l0.14,0.434c7.089,21.842,16.318,44.948,28.386,62.643
		c12.056,17.682,27.022,30.031,45.57,30.036C671.808,738.905,679.546,737.024,687.821,732.892z"/>
	<polygon style="fill:#352E35;" points="1020.694,843.458 1051.83,843.458 1051.83,738.546 1051.208,738.546 1020.694,738.546 	"/>
	<polygon style="fill:#352E35;" points="1020.694,1709.511 1020.694,1812.235 1020.694,1813.176 1020.694,1813.8 1051.83,1813.8 
		1051.83,1811.247 1051.83,1708.887 1020.694,1708.887 	"/>
	<polygon style="fill:#352E35;" points="1560.698,1260.603 1468.977,1260.603 1468.977,1291.742 1469.601,1291.742 
		1560.345,1291.742 1573.888,1291.742 1573.888,1260.603 	"/>
	<polygon style="fill:#352E35;" points="498.635,1291.742 499.259,1291.742 603.547,1291.742 603.547,1260.603 498.635,1260.603 	
		"/>
	<polygon style="fill:#352E35;" points="1404.972,885.445 1403.127,887.289 1331.229,959.188 1353.247,981.208 1424.462,909.991 
		1426.99,907.463 1427.432,907.022 1405.412,885.004 	"/>
	<polygon style="fill:#352E35;" points="645.093,1645.323 645.534,1645.765 667.111,1667.343 741.296,1593.157 719.275,1571.139 	
		"/>
	<polygon style="fill:#352E35;" points="1353.246,1571.138 1331.229,1593.157 1331.669,1593.598 1396.595,1658.523 
		1405.412,1667.343 1427.432,1645.323 1418.305,1636.197 	"/>
	<polygon style="fill:#352E35;" points="645.093,907.022 645.534,907.463 719.276,981.208 741.296,959.189 667.11,885.003 	"/>
	<path style="fill:#352E35;" d="M1418.329,1460.463c-69.573-50.318-198.156-131.948-275.391-177.011
		c-14.201-8.285-26.999-14.734-38.363-19.619c0.654-3.809,1.069-7.706,1.069-11.713c0-30.83-20.122-56.931-47.938-65.969
		c-0.183-41.376-2.615-101.352-6.446-151.08c-1.922-24.95-4.194-47.313-6.714-63.462c-1.261-8.076-2.581-14.594-3.962-19.132
		c-0.692-2.27-1.394-4.045-2.144-5.299c-0.744-1.23-1.56-2.073-2.677-2.1c-1.12,0.027-1.937,0.872-2.682,2.105
		c-2.762,4.67-5.216,16.968-7.507,34.237c-6.805,51.612-11.519,146.928-11.757,205.102c-27.29,9.337-46.94,35.142-46.94,65.596
		c0,38.319,31.064,69.382,69.384,69.383c16.184,0,31.042-5.592,42.843-14.883c9.913,7.568,21.929,15.626,36.304,24.013
		c53.097,30.978,133.181,74.574,203.408,110.433c35.113,17.929,67.76,33.922,93.343,45.439
		c25.62,11.514,44.011,18.559,51.128,18.592c1.475-0.009,2.631-0.28,3.229-1.238l0.268-1.056c-0.028-1.365-0.954-2.901-2.567-4.896
		C1458.141,1490.504,1441.531,1477.249,1418.329,1460.463z"/>
	<polygon style="fill:#5C5C5B;" points="1404.58,491.522 1387.92,517.357 1388.445,517.695 1488.116,581.976 1504.777,556.141 	"/>
	<polygon style="fill:#5C5C5B;" points="666.944,491.521 566.748,556.141 584.221,583.239 584.221,581.454 683.37,517.511 
		683.37,517.171 683.37,516.988 683.27,516.833 	"/>
	<polygon style="fill:#5C5C5B;" points="964.297,345.377 964.297,387.98 1130.967,387.98 1130.967,345.377 1130.344,345.377 	"/>
	<polygon style="fill:#C6C6C6;" points="1596.911,318.806 1481.852,497.215 1482.377,497.553 1494.552,505.406 1609.613,326.996 	
		"/>
	<polygon style="fill:#C6C6C6;" points="1619.636,333.46 1619.636,331.674 1618.488,333.462 1503.765,511.347 1516.463,519.537 
		1631.524,341.128 	"/>
	<path style="fill:#C6C6C6;" d="M1688.444,323.101l-0.384-1.315l-140.476,217.821l8.281,5.341l0.339-0.525l129.15-200.257
		c2.772-4.3,4.111-9.131,4.109-13.907C1689.463,327.833,1689.117,325.422,1688.444,323.101z"/>
	<path style="fill:#C6C6C6;" d="M1567.205,295.985c-1.426-2.932-2.17-6.163-2.17-9.42c0.001-3.953,1.091-7.943,3.384-11.493
		c4.06-6.298,10.945-9.739,17.961-9.739l0.596,0.009l0.344,0.005l6.889-10.68l-15.715-10.137l-0.335,0.525l-129.154,200.263
		c-2.765,4.287-4.082,9.079-4.081,13.816c0,5.91,2.043,11.737,5.863,16.418l0.542,0.667l116.029-179.917L1567.205,295.985z"/>
	<polygon style="fill:#C6C6C6;" points="1616.123,268.796 1603.422,260.607 1603.085,261.131 1598.34,268.49 1598.34,268.675 
		1598.34,269.015 1610.799,277.052 	"/>
	<polygon style="fill:#C6C6C6;" points="1632.71,291.183 1638.035,282.926 1625.334,274.738 1624.997,275.262 1619.876,283.199 
		1620.621,283.386 	"/>
	<polygon style="fill:#C6C6C6;" points="1659.945,297.058 1647.244,288.869 1646.907,289.393 1642.162,296.751 1642.162,296.937 
		1642.162,297.277 1654.62,305.314 	"/>
	<path style="fill:#C6C6C6;" d="M1673.489,322.336l0.44,1.144l7.673-11.895l-0.383-0.355c-1.076-0.998-2.288-1.931-3.571-2.757v0
		l-8.49-5.473l-5.323,8.257l1.359,0.876C1669.111,314.658,1671.921,318.272,1673.489,322.336z"/>
	<path style="fill:#C6C6C6;" d="M1653.586,351.326c-3.952-0.001-7.94-1.092-11.491-3.38l-0.833-0.537l-0.526-0.338l-115.059,178.408
		l12.698,8.19l117.642-182.412L1653.586,351.326z"/>
	<polygon style="fill:#C6C6C6;" points="1575.002,304.677 1574.664,305.2 1459.942,483.084 1472.641,491.274 1587.702,312.865 	"/>
	<polygon style="fill:#C6C6C6;" points="466.54,334.169 576.972,505.404 577.499,505.067 589.673,497.215 478.896,325.448 	"/>
	<path style="fill:#C6C6C6;" d="M435.53,355.351c-2.544,1.019-5.227,1.516-7.894,1.516c-2.808,0-5.599-0.55-8.199-1.618
		l-1.838-0.752l1.077,1.667L533.15,533.667l12.698-8.188L436.007,355.159L435.53,355.351z"/>
	<path style="fill:#C6C6C6;" d="M383.082,323.1c-0.677,2.321-1.022,4.732-1.022,7.157c-0.001,4.777,1.336,9.609,4.113,13.91
		l129.486,200.78l8.282-5.339l-140.48-217.82L383.082,323.1z"/>
	<polygon style="fill:#C6C6C6;" points="445.219,349.218 555.062,519.536 555.587,519.198 567.763,511.346 457.575,340.497 	"/>
	<path style="fill:#C6C6C6;" d="M499.534,310.681c-0.649,0.592-1.343,1.151-2.078,1.67l-9.596,6.771l0.325,0.502l110.698,171.648
		l12.701-8.189L500.077,310.184L499.534,310.681z"/>
	<path style="fill:#C6C6C6;" d="M406.311,334.896c0.186-5.453,2.442-10.785,6.541-14.71l0.37-0.356L402.367,303l-8.487,5.472
		c-1.284,0.827-2.493,1.759-3.57,2.757l-0.385,0.356l16.318,25.308L406.311,334.896z"/>
	<polygon style="fill:#C6C6C6;" points="434.456,304.65 424.278,288.868 423.756,289.207 411.581,297.058 422.099,313.371 	"/>
	<polygon style="fill:#C6C6C6;" points="444.22,297.76 455.779,289.603 446.19,274.737 445.668,275.076 433.494,282.927 
		444.22,299.563 	"/>
	<path style="fill:#C6C6C6;" d="M465.54,282.713l7.339-5.18c1.237-0.873,2.537-1.594,3.877-2.168l0.679-0.29l-9.331-14.469
		l-0.523,0.339l-12.176,7.851l10.135,15.719V282.713z"/>
	<path style="fill:#C6C6C6;" d="M493.028,244.53l-15.712,10.136l12.594,19.529l0.245,0.058c4.862,1.168,9.33,4.024,12.42,8.402
		c2.62,3.712,3.875,7.991,3.876,12.239c0,1.356-0.131,2.71-0.38,4.042l-0.046,0.243l114.172,177.037l0.545-0.665
		c3.816-4.681,5.859-10.508,5.859-16.419c0.001-4.736-1.315-9.528-4.077-13.815L493.028,244.53z"/>
	<polygon style="fill:#C6C6C6;" points="1096.237,117.617 1096.861,117.617 1116.922,117.617 1116.922,96.809 1096.237,96.809 	"/>
	<polygon style="fill:#C6C6C6;" points="1023.119,117.617 1043.803,117.617 1043.803,116.993 1043.803,96.809 1023.119,96.809 	"/>
	<polygon style="fill:#C6C6C6;" points="1059.677,117.617 1080.362,117.617 1080.362,116.993 1080.362,96.809 1059.677,96.809 	"/>
	<path style="fill:#C6C6C6;" d="M981.528,97.434v159.487c0,15.995,10.456,29.535,24.9,34.195l0.815,0.264V158.962l-0.398-0.154
		c-7.974-3.088-13.672-10.858-13.67-19.885c-0.002-9.027,5.695-16.795,13.67-19.883l0.398-0.154V96.808l-25.715,0.004V97.434z"/>
	<path style="fill:#C6C6C6;" d="M1146.704,96.809h-13.909v20.808h6.685c4.879,0.001,9.386,1.661,12.991,4.448l1.005,0.779V97.431
		l-0.514-0.091C1150.951,96.984,1148.831,96.809,1146.704,96.809z"/>
	<path style="fill:#C6C6C6;" d="M1139.48,160.233h-6.061h-0.624v0.624v132.004h20.681V155.004l-1.005,0.78
		C1148.865,158.571,1144.359,160.233,1139.48,160.233z"/>
	<polygon style="fill:#C6C6C6;" points="1096.231,292.861 1096.857,292.861 1116.922,292.861 1116.922,160.233 1096.235,160.233 	
		"/>
	<path style="fill:#C6C6C6;" d="M1170.377,105.778l-1.032-0.892v187.975h13.313v-0.624V132.762
		C1182.66,122.018,1177.934,112.331,1170.377,105.778z"/>
	<polygon style="fill:#C6C6C6;" points="1023.119,292.861 1023.743,292.861 1043.803,292.861 1043.803,160.233 1023.119,160.233 	
		"/>
	<polygon style="fill:#C6C6C6;" points="1059.677,292.861 1060.301,292.861 1080.362,292.861 1080.362,160.233 1059.677,160.233 	
		"/>
	<path style="fill:#B0B0B0;" d="M1556.039,543.576l-6.731-4.341l139.211-215.858l-0.074-0.269
		c-1.246-4.486-3.696-8.592-7.228-11.878l-0.548-0.508l-7.223,11.205v0.185v0.118l0.041,0.106c0.951,2.471,1.443,5.106,1.443,7.759
		c-0.001,3.953-1.093,7.942-3.379,11.492c-3.826,5.93-10.154,9.327-16.738,9.704l-0.319,0.019l-116.495,180.633l-10.6-6.836
		l114.147-176.991v-0.183v-0.34l-10.262-6.618v-1.786l-115.196,178.623l-10.601-6.837l114.384-177.362l-11.309-7.292
		l-114.385,177.359l-10.603-6.837l114.384-177.361l-11.308-7.293L1472.269,489.55l-10.602-6.838l114.146-176.991v-0.183v-0.34
		l-1.038-0.669c-3.336-2.153-5.863-5.098-7.508-8.434v-1.958l-116.013,179.895c-3.28-4.331-5.085-9.566-5.085-14.897
		c0.001-4.507,1.246-9.058,3.885-13.14l129.492-200.788l-20.669-13.33c-2.739-1.753-8.285-4.182-13.119-4.196
		c-0.498,0-0.988,0.026-1.465,0.084c-8.133,0.968-16.249,4.302-21.096,11.814l-136.284,211.319
		c-2.781,4.31-4.108,9.138-4.107,13.908c0,5.33,1.653,10.592,4.78,15c1.845,2.602,4.175,4.932,7.028,6.772l9.817,6.331l0,0
		l99.234,63.998l0.001,0l9.73,6.274c4.324,2.789,9.174,4.123,13.965,4.123c8.474,0.001,16.777-4.172,21.715-11.824l7.445-11.545
		l-0.465-0.35L1556.039,543.576z"/>
	<path style="fill:#B0B0B0;" d="M1597.874,268.715l0.751,0.484l0.522,0.338l5.324-8.255l-11.312-7.292l-7.298,11.318l1.106,0.032
		C1590.728,265.444,1594.5,266.539,1597.874,268.715z"/>
	<polygon style="fill:#B0B0B0;" points="1626.383,275.413 1625.859,275.076 1615.073,268.121 1609.751,276.375 1621.059,283.669 	
		"/>
	<polygon style="fill:#B0B0B0;" points="1643.309,297.275 1648.294,289.544 1636.983,282.25 1631.661,290.506 1642.97,297.799 	"/>
	<polygon style="fill:#B0B0B0;" points="1664.881,311.93 1670.208,303.675 1658.897,296.383 1653.573,304.637 1664.074,311.41 	"/>
	<path style="fill:#B0B0B0;" d="M548.332,239.578c-4.827-7.484-12.878-11.641-21.157-11.818l-0.214-0.002
		c-0.996,0.001-1.952,0.142-2.866,0.231c-0.559,0.058-1.196,0.027-1.901,0.147l-0.036,0.006l-0.088,0.025l0.001,0.003
		c-3.261,0.584-6.465,1.8-9.422,3.706l-20.669,13.33l129.493,200.787c2.632,4.082,3.879,8.633,3.879,13.139
		c0,5.331-1.804,10.568-5.08,14.898L506.361,297.404l-0.289,1.531c-0.843,4.419-3.063,8.575-6.538,11.746l-0.203,0.185v0.276v0.185
		L609.86,482.712l-10.603,6.837L488.88,318.402l-11.004,7.768l110.072,170.673l-10.603,6.838l-110.578-171.46v1.789l-9.984,7.047
		v0.324v0.186l109.256,169.406l-10.603,6.838L445.445,347.27v1.789l-5.572,3.933c-1.379,0.973-2.836,1.758-4.342,2.36l-0.702,0.282
		l109.296,169.473l-10.599,6.836L419.589,355.28l-0.182-0.046c-3.602-1.487-6.83-3.966-9.229-7.366
		c-2.621-3.713-3.882-7.992-3.883-12.239l0.016-0.723v-0.031v-0.185l-15.459-23.969l-0.543,0.508
		c-3.53,3.287-5.982,7.392-7.229,11.878l-0.075,0.269l139.213,215.858l-6.73,4.339l-0.016,0.012l-0.465,0.349l7.446,11.544
		c4.936,7.652,13.239,11.826,21.714,11.824c4.789,0,9.64-1.334,13.967-4.123l9.816-6.331l99.148-63.942l9.816-6.331
		c2.601-1.677,4.712-3.793,6.469-6.101c3.469-4.558,5.318-10.11,5.318-15.739c0.001-4.746-1.318-9.547-4.084-13.841L548.332,239.578
		z"/>
	<path style="fill:#B0B0B0;" d="M476.757,275.365c2.684-1.148,5.53-1.708,8.362-1.708c1.695,0,3.384,0.201,5.036,0.597l1.512,0.365
		l-0.842-1.31l-12.462-19.32l-11.307,7.294l9.214,14.289L476.757,275.365z"/>
	<polygon style="fill:#B0B0B0;" points="465.764,282.555 456.452,268.12 455.93,268.459 445.143,275.414 454.757,290.322 	"/>
	<polygon style="fill:#B0B0B0;" points="433.888,305.043 433.931,305.021 444.443,297.603 444.12,297.1 434.542,282.251 
		423.231,289.545 433.386,305.293 	"/>
	<path style="fill:#B0B0B0;" d="M412.852,320.186c0.752-0.721,1.568-1.395,2.446-2.014l7.599-5.364v-0.323v-0.183l-10.269-15.921
		l-11.308,7.294l10.984,17.034L412.852,320.186z"/>
	<path style="fill:#B0B0B0;" d="M1170.592,291.614V105.969l-0.208-0.185c-4.841-4.311-10.809-7.264-17.421-8.443l-0.732-0.129
		v24.667l0.241,0.187c5.052,3.907,8.318,10.019,8.318,16.858c0,6.838-3.265,12.952-8.318,16.86l-0.241,0.187v135.643h-18.19
		l0.001-131.381h-18.366v131.381h-18.196l0.004-131.381h-18.368v131.381h-18.193l0.001-131.381h-18.365v131.381h-18.193
		l0.001-131.381h-9.879c-2.691,0-5.266-0.505-7.641-1.425l-0.848-0.326v131.112c-13.506-4.745-23.223-17.545-23.223-32.672V96.811
		h-34.234c-4.669,0.025-16.523,2.714-22.881,8.225c-7.777,6.792-13.06,16.546-13.059,27.715v177.933
		c0,14.885,9.048,27.657,21.945,33.114c4.302,1.82,9.032,2.826,13.994,2.826h16.38h165.423h16.377c19.85,0,35.94-16.091,35.94-35.94
		v-19.07h-0.625H1170.592z"/>
	<path style="fill:#B0B0B0;" d="M1014.486,117.617h9.879V96.809h-18.368v22.558l0.848-0.327
		C1009.221,118.122,1011.795,117.617,1014.486,117.617z"/>
	<polygon style="fill:#B0B0B0;" points="1060.923,116.993 1060.923,96.809 1042.558,96.809 1042.558,117.617 1060.923,117.617 	"/>
	<polygon style="fill:#B0B0B0;" points="1097.484,116.993 1097.484,96.809 1079.115,96.809 1079.115,117.617 1097.484,117.617 	"/>
	<polygon style="fill:#B0B0B0;" points="1134.041,116.993 1134.041,96.809 1115.676,96.809 1115.676,117.617 1134.041,117.617 	"/>
	<path style="fill:#F9B657;" d="M1585.698,788.929c-18.581-22.038-38.458-42.94-59.522-62.595l-0.443-0.412l-0.425,0.428
		c-0.481,0.484-0.92,0.96-1.397,1.382l-97.951,86.955l0.521,0.466c119.963,107.342,195.487,263.32,195.488,436.966
		c-0.002,161.878-65.613,308.425-171.697,414.509c-106.084,106.083-252.63,171.695-414.509,171.695
		c-161.879,0-308.426-65.613-414.51-171.695c-106.084-106.084-171.695-252.631-171.696-414.509
		c0.001-172.062,74.13-326.803,192.193-434.043l0.487-0.444l-94.246-92.325l-0.284-0.31l-0.426-0.464l-0.458,0.428
		c-9.362,8.688-18.495,17.617-27.382,26.787l-0.029,0.03l-0.023,0.032c-88.937,119.666-141.576,267.918-141.575,428.469
		c0,397.117,321.925,719.043,719.044,719.044c202.612,0.001,385.625-83.837,516.319-218.672l0.026-0.027l0.026-0.035
		c88.938-119.666,141.577-267.919,141.576-428.47C1754.809,1075.648,1691.195,914.051,1585.698,788.929z"/>
	<path style="fill:#20181D;" d="M1525.279,680.584c-1.105-1.019-2.308-2.104-3.486-3.171c-0.659-0.598-1.275-1.167-1.96-1.784
		l-0.801-0.719l-0.225,1.051c-2.871,13.318-7.794,25.962-13.563,36.063c-20.891,27.838-51.54,43.446-79.885,43.442
		c-12.062,0-23.705-2.82-34.019-8.715c-105.51-71.929-220.25-101.265-335.872-101.263c-125.179,0.001-251.395,34.37-368.152,86.263
		l-0.012,0.005l-0.013,0.006c-8.143,4.07-15.691,5.893-22.706,5.893c-17.94,0.005-32.578-11.957-44.544-29.496
		c-11.955-17.524-21.163-40.546-28.229-62.331l-0.266-0.815l-0.693,0.501c-14.391,10.359-28.503,21.254-42.035,32.717
		c-7.613,6.446-11.464,15.576-11.463,24.728c-0.001,8.246,3.124,16.523,9.435,22.88v0.001l0.296,0.323l0.008,0.009l93.802,91.889
		l3.867,3.787c6.274,6.147,14.471,9.243,22.698,9.243c1.15,0,2.302-0.061,3.453-0.182c1.256-0.133,2.46-0.414,3.646-0.679
		c1.406-0.315,2.794-0.704,4.17-1.215c3.126-1.16,6.162-2.726,8.918-4.918C736.37,785.35,866.451,698.12,1049.99,698.123
		c26.335,0,51.397,2.034,75.113,5.612c9.486,1.431,18.758,3.109,27.809,5.004c22.623,4.736,43.875,10.82,63.671,17.763
		c7.918,2.777,15.605,5.692,23.055,8.714c3.725,1.511,7.391,3.048,10.996,4.607c61.296,26.517,105.287,59.58,129.012,79.947
		c6.124,5.256,13.699,7.89,21.264,7.89l0.194-0.001c7.63-0.045,15.24-2.768,21.328-8.173l102.307-90.821
		c7.275-6.457,10.935-15.393,10.934-24.322C1535.674,695.671,1532.218,686.991,1525.279,680.584z"/>
	<path style="fill:#493D47;" d="M1323.003,577.353c-12.887-13.477-35.773-24.635-53.436-30.276
		c-79.76-25.445-139.849-35.361-234.476-37.436c-2.877-0.063-5.786-0.094-8.723-0.094c-73.912,0.003-166.259,19.683-233.887,44.139
		c-7.284,2.635-15.103,6.052-21.381,10.772c-6.274,4.714-11.032,10.779-12.016,18.654c-0.113,0.904-0.169,1.807-0.168,2.704
		c0.013,10.306,7.168,19.841,16.187,24.912l0,0c9.788,5.492,21.298,6.641,32.371,6.926c2.123,0.054,4.244,0.08,6.364,0.08
		c49.674-0.004,98.21-14.402,147.234-21.994c27.228-4.22,54.774-6.311,82.325-6.311c70.94,0,141.9,13.865,207.48,40.948
		c13.158,5.43,26.449,11.501,40.772,12.897c1.731,0.169,3.483,0.254,5.243,0.254c12.81-0.002,26.013-4.539,33.525-14.911
		c4.095-5.664,5.903-12.335,5.902-19.152C1336.315,597.888,1331.13,585.87,1323.003,577.353z"/>
	<path style="fill:#544652;" d="M1051.208,1194.934c-22.605,0-40.931,18.325-40.931,40.932c0,22.605,18.325,40.93,40.931,40.931
		c22.605,0,40.93-18.325,40.93-40.931C1092.139,1213.259,1073.813,1194.935,1051.208,1194.934z"/>
	<path style="fill:#544652;" d="M1036.994,1122.607c0.478,14.793,0.006,30.041,1.641,44.833c0.291,2.738,2.492,4.237,4.589,4.218
		c2.056,0.035,4.149-1.477,4.254-4.257c0.122-2.677,0.173-5.363,0.173-8.056c0-11.849-1.007-23.82-1.38-35.533
		c-0.481-14.929-0.962-29.857-1.442-44.785c-0.466-14.447-0.346-29.141-1.834-43.584c-1.542-14.95-3.422-29.846-4.911-44.782
		l-0.057-0.562h-0.757h-0.603l-0.02,0.602c-0.512,14.512-1.415,29.009-1.978,43.538c-0.122,3.13-0.173,6.264-0.173,9.401
		c0,11.822,0.717,23.678,1.099,35.427C1036.058,1093.581,1036.526,1108.094,1036.994,1122.607z"/>
	<path style="fill:#544652;" d="M1376.149,1441.396c-2.839-3.534-6.751-5.501-10.37-7.78c-4.864-3.052-9.721-6.114-14.573-9.185
		c-8.589-5.437-17.155-10.904-25.847-16.193c-17.491-10.642-34.923-21.379-52.333-32.151
		c-34.678-21.456-69.587-42.527-104.649-63.347c-9.764-5.797-19.542-11.568-29.341-17.302c-9.926-5.799-20.639-14.167-32.19-16.875
		c-0.57-0.133-1.13-0.196-1.673-0.196c-4.034,0.013-7.071,3.414-7.077,7.087c-0.003,1.634,0.618,3.327,2,4.738
		c7.281,7.463,17.811,11.714,26.598,16.673c8.85,4.986,17.682,10.002,26.502,15.043c17.772,10.155,35.49,20.406,53.185,30.693
		c35.254,20.495,70.686,40.661,106.308,60.51c9.936,5.535,19.913,10.947,30.012,16.181c5.459,2.829,10.923,5.648,16.395,8.455
		c4.757,2.43,9.73,5.844,15.343,6.61l0.297,0.02c1.03-0.001,1.858-0.785,1.86-1.762L1376.149,1441.396z"/>
	<path style="fill:#FDD187;" d="M1654.408,929.277c-30.057-57.057-68.526-109.925-113.411-156.222
		c-4.74-4.885-11.562-7.392-18.341-7.394c-6.627,0-13.248,2.401-17.844,7.406c-4.788,5.215-7.28,11.772-7.278,18.312
		c-0.003,6.385,2.377,12.759,7.291,17.822c9.484,9.782,18.678,19.836,27.532,30.191c78.091,91.328,128.911,206.19,144.764,325.224
		c3.616,27.154,5.397,54.473,5.398,81.756c0,118.033-33.378,235.403-96.04,335.883c-2.346,3.76-3.445,8.151-3.445,12.567
		c0.004,8.998,4.549,18.164,12.631,22.444c4.147,2.192,8.557,3.257,12.875,3.257c8.701,0.004,17.03-4.337,22.077-12.427
		c63.929-102.512,99.425-222.253,102.921-342.944c0.18-6.246,0.268-12.492,0.268-18.735
		C1733.804,1136.197,1705.755,1026.756,1654.408,929.277z"/>
	<path style="fill:#E1E1E1;" d="M490.446,273.041l-1.515-0.362l18.071,28.021l0.295-1.532c0.268-1.406,0.403-2.838,0.403-4.273
		c0.001-4.493-1.331-9.03-4.105-12.958C500.324,277.301,495.589,274.275,490.446,273.041z"/>
	<path style="fill:#E1E1E1;" d="M476.266,274.219c-1.42,0.608-2.797,1.372-4.106,2.295l-8.094,5.712l24.47,37.945l9.64-6.801
		c0.777-0.55,1.511-1.141,2.2-1.768l0.203-0.186v-0.275v-0.183l-23.831-36.948L476.266,274.219z"/>
	<polygon style="fill:#E1E1E1;" points="454.57,288.928 442.746,297.273 467.215,335.22 468.014,334.656 479.574,326.499 
		455.1,288.553 	"/>
	<polygon style="fill:#E1E1E1;" points="433.331,303.928 433.287,303.949 433.249,303.976 421.65,312.162 421.65,312.486 
		421.65,312.672 445.894,350.269 446.692,349.705 458.03,341.704 458.03,341.381 458.03,341.197 433.83,303.677 	"/>
	<path style="fill:#E1E1E1;" d="M411.989,319.285c-4.342,4.159-6.727,9.802-6.923,15.568v0.022v0.185l13.74,21.308l0.242,0.061
		v-0.002c2.728,1.109,5.647,1.686,8.588,1.686c2.822,0,5.663-0.526,8.358-1.605l0.702-0.281l-24.163-37.467L411.989,319.285z"/>
	<polygon style="fill:#E1E1E1;" points="1610.952,275.665 1598.776,267.814 1574.566,305.353 1574.566,305.538 1574.566,305.878 
		1587.025,313.914 1611.475,276.003 	"/>
	<path style="fill:#E1E1E1;" d="M1674.652,321.887c-1.658-4.299-4.636-8.131-8.782-10.804l0,0l-1.361-0.878l-24.207,37.541v0.186
		v0.341l1.118,0.72c3.758,2.422,7.987,3.58,12.169,3.579h0.018l1.263-0.036l0.328-0.009l19.498-30.233v-0.183v-0.119
		L1674.652,321.887z"/>
	<path style="fill:#E1E1E1;" d="M1588.118,264.109l-1.124-0.016l-0.605-0.008c-7.429,0-14.718,3.641-19.019,10.31
		c-2.425,3.758-3.583,7.987-3.582,12.17c0,3.393,0.769,6.753,2.233,9.818l0.748,0.83L1588.118,264.109z"/>
	<polygon style="fill:#E1E1E1;" points="1632.862,289.796 1620.686,281.944 1596.236,319.855 1608.936,328.045 1633.386,290.134 	
		"/>
	<polygon style="fill:#E1E1E1;" points="1655.297,304.264 1654.774,303.927 1642.596,296.074 1618.149,333.986 1630.039,341.654 
		1631.04,342.3 	"/>
	<path style="fill:#D4D4D4;" d="M490.446,273.041c-1.742-0.418-3.53-0.631-5.327-0.631c-2.996,0-6.011,0.592-8.853,1.809
		l-0.68,0.291l24.243,37.59l0.547-0.498c3.679-3.361,6.032-7.761,6.921-12.434l0.046-0.246l-16.654-25.824L490.446,273.041z"/>
	<polygon style="fill:#D4D4D4;" points="464.293,282.067 454.081,289.273 478.552,327.219 489.557,319.453 465.085,281.507 	"/>
	<polygon style="fill:#D4D4D4;" points="442.973,297.114 432.762,304.32 457.232,342.266 468.237,334.499 443.765,296.554 	"/>
	<path style="fill:#D4D4D4;" d="M414.578,317.153c-0.928,0.655-1.791,1.368-2.589,2.132l-0.372,0.356l23.899,37.059l0.478-0.191
		c1.595-0.638,3.139-1.469,4.598-2.5l6.323-4.462l-24.473-37.947L414.578,317.153z"/>
	<path style="fill:#D4D4D4;" d="M405.065,334.852l-0.015,0.777c-0.001,4.493,1.33,9.03,4.108,12.959v0
		c2.546,3.609,5.981,6.243,9.803,7.814l1.836,0.757l-15.661-24.283L405.065,334.852z"/>
	<path style="fill:#D4D4D4;" d="M1599.588,268.675L1599.588,268.675v-0.34l-1.038-0.669c-3.572-2.303-7.57-3.463-11.547-3.572
		l-0.353-0.01l-20.721,32.131l0.155,0.316c1.739,3.579,4.445,6.742,8.016,9.046l0.751,0.485l0.524,0.339l24.213-37.542V268.675z"/>
	<polygon style="fill:#D4D4D4;" points="1621.125,282.225 1610.427,275.328 1585.977,313.237 1597.285,320.532 1621.87,282.412 	"/>
	<polygon style="fill:#D4D4D4;" points="1643.41,297.12 1643.41,296.937 1643.41,296.937 1643.41,296.597 1632.337,289.458 
		1607.888,327.369 1618.389,334.14 1619.196,334.661 	"/>
	<polygon style="fill:#D4D4D4;" points="1654.249,303.59 1653.911,304.113 1629.799,341.5 1641.109,348.794 1665.559,310.884 	"/>
	<path style="fill:#D4D4D4;" d="M1676.178,330.095c0-2.807-0.521-5.594-1.526-8.206l-0.443-1.147l-20.547,31.863l1.225-0.069
		c6.962-0.397,13.663-3.993,17.715-10.273l-0.524-0.338l0.524,0.338C1675.023,338.505,1676.179,334.276,1676.178,330.095z"/>
	<polygon style="fill:#E1E1E1;" points="1023.119,116.993 1023.119,161.48 1043.803,161.48 1043.803,116.37 1023.119,116.37 	"/>
	<path style="fill:#E1E1E1;" d="M991.929,138.924c0.002,9.562,6.025,17.779,14.467,21.048l0.848,0.329v-42.752l-0.848,0.329
		C997.954,121.146,991.931,129.361,991.929,138.924z"/>
	<polygon style="fill:#E1E1E1;" points="1096.236,116.993 1096.234,161.48 1116.922,161.48 1116.922,116.37 1096.236,116.37 	"/>
	<path style="fill:#E1E1E1;" d="M1139.48,116.37h-6.061h-0.624v0.624v44.487h6.685c5.166,0,9.943-1.762,13.755-4.71l0.241-0.186
		v-35.319l-0.241-0.187C1149.422,118.13,1144.645,116.37,1139.48,116.37z"/>
	<polygon style="fill:#E1E1E1;" points="1059.677,116.993 1059.677,161.48 1080.362,161.48 1080.362,116.37 1059.677,116.37 	"/>
	<path style="fill:#D4D4D4;" d="M1006.396,117.878l-0.398,0.154v41.786l0.398,0.154c2.514,0.974,5.242,1.509,8.09,1.509h9.879
		V116.37h-9.879C1011.638,116.37,1008.91,116.905,1006.396,117.878z"/>
	<polygon style="fill:#D4D4D4;" points="1042.558,116.993 1042.558,161.48 1060.923,161.48 1060.923,116.37 1042.558,116.37 	"/>
	<polygon style="fill:#D4D4D4;" points="1079.115,116.37 1079.115,161.48 1097.484,161.48 1097.484,116.37 1096.861,116.37 	"/>
	<polygon style="fill:#D4D4D4;" points="1115.676,116.993 1115.676,161.48 1134.041,161.48 1134.041,116.37 1115.676,116.37 	"/>
	<path style="fill:#D4D4D4;" d="M1153.235,121.078l-1.005-0.775v37.244l1.005-0.777c5.342-4.132,8.8-10.605,8.8-17.847
		C1162.035,131.682,1158.577,125.209,1153.235,121.078z"/>
</g>
</svg>
